<?xml version="1.0" encoding="UTF-8"?>
<svg id="Layer_1" data-name="Layer 1" xmlns="http://www.w3.org/2000/svg" viewBox="0 0 70 70">
  <defs>
    <style>
      .cls-1 {
        fill: #0466c8;
      }

      .cls-2 {
        fill: #001233;
      }
    </style>
  </defs>
  <path class="cls-2" d="M70,3.89V27.22h-7.78V7.78H7.78V62.22h11.67V23.33c0-2.15,1.74-3.89,3.89-3.89h23.33c2.15,0,3.89,1.74,3.89,3.89v23.33c0,2.15-1.74,3.89-3.89,3.89h-11.67v-7.78h7.78v-15.56h-15.56v42.78H3.89c-2.15,0-3.89-1.74-3.89-3.89V3.89C0,1.74,1.74,0,3.89,0h62.22c2.15,0,3.89,1.74,3.89,3.89Z"/>
  <path class="cls-1" d="M62.22,42.78h7.78v23.33c0,2.15-1.74,3.89-3.89,3.89h-31.11v-7.78h27.22v-19.44Z"/>
</svg>